<?xml version="1.0" standalone="no"?>
<!DOCTYPE svg PUBLIC "-//W3C//DTD SVG 20010904//EN"
 "http://www.w3.org/TR/2001/REC-SVG-20010904/DTD/svg10.dtd">
<svg version="1.0" xmlns="http://www.w3.org/2000/svg"
 width="512.000000pt" height="512.000000pt" viewBox="0 0 512.000000 512.000000"
 preserveAspectRatio="xMidYMid meet">

<g transform="translate(0.000000,512.000000) scale(0.100000,-0.100000)"
fill="#000000" stroke="none">
<path d="M2436 5104 c-143 -34 -287 -143 -350 -264 -16 -30 -30 -56 -31 -58
-2 -2 -22 11 -46 27 -67 47 -148 71 -237 72 -132 0 -221 -39 -315 -140 -69
-75 -98 -146 -105 -257 l-4 -80 -50 -23 c-43 -20 -98 -76 -110 -113 -2 -5 -25
-14 -52 -19 -109 -20 -199 -92 -249 -197 -49 -104 -38 -234 29 -335 14 -22 24
-40 22 -41 -2 -1 -24 -19 -51 -40 -57 -45 -77 -81 -77 -138 0 -85 411 -3352
427 -3390 18 -43 57 -83 96 -97 19 -8 409 -11 1245 -11 1165 0 1219 1 1258 19
49 22 79 62 93 122 23 96 423 3359 417 3393 -7 36 -44 81 -105 127 -33 24 -33
26 -18 50 72 112 59 318 -28 447 -42 62 -135 134 -203 156 -46 15 -48 18 -65
76 -23 81 -98 159 -176 186 -46 17 -56 25 -77 67 -104 204 -374 247 -546 89
-32 -29 -29 -31 -51 28 -39 104 -82 139 -136 109 -44 -25 -47 -57 -16 -135 23
-55 30 -89 33 -167 4 -90 6 -99 30 -117 16 -13 40 -20 69 -20 72 0 107 27 117
91 13 81 106 159 189 159 87 0 168 -62 193 -146 19 -65 38 -83 102 -93 93 -15
132 -62 132 -160 0 -60 25 -85 95 -94 86 -12 164 -68 208 -151 32 -61 32 -194
-2 -252 -22 -40 -24 -41 -60 -33 -109 26 -230 3 -374 -71 l-99 -50 -44 31
c-183 126 -393 129 -571 10 l-56 -38 -62 39 c-133 83 -262 106 -383 69 -39
-12 -90 -36 -114 -54 -24 -18 -48 -36 -55 -40 -7 -4 -36 8 -67 28 -95 60 -150
78 -251 79 -49 1 -105 -2 -123 -6 -32 -8 -34 -6 -54 40 -71 157 33 344 204
368 93 13 131 49 109 107 -15 38 -45 50 -117 44 -170 -13 -321 -149 -360 -323
-19 -90 -13 -162 22 -249 l24 -60 -28 -22 c-15 -12 -30 -22 -33 -23 -4 0 -38
18 -75 40 -116 68 -181 85 -321 86 -134 0 -142 3 -174 65 -21 42 -25 121 -8
166 27 73 128 130 208 117 47 -8 91 24 91 65 0 16 10 41 22 56 19 25 26 27 72
22 96 -9 131 33 101 124 -60 181 66 359 255 359 103 0 185 -48 237 -139 33
-56 50 -70 84 -71 40 0 68 38 80 110 26 161 137 284 294 324 76 20 120 20 206
-1 54 -13 74 -14 94 -5 57 26 52 107 -8 135 -78 37 -219 46 -321 21z m-1077
-1523 c78 -29 161 -83 166 -106 2 -11 42 -513 90 -1115 47 -602 88 -1106 91
-1120 7 -32 32 -60 55 -60 24 0 26 -4 34 -92 7 -77 7 -78 -19 -88 -45 -17 -50
-43 -37 -207 6 -81 14 -176 18 -211 l6 -62 -216 0 c-197 0 -216 2 -220 18 -3
9 -88 680 -189 1490 l-183 1473 25 20 c109 86 251 109 379 60z m1335 -10 c33
-17 74 -41 90 -54 l30 -24 -27 -1289 c-15 -709 -30 -1378 -34 -1486 l-6 -198
-169 0 c-92 0 -168 1 -169 3 -1 1 -16 672 -35 1492 l-33 1490 32 28 c98 85
202 97 321 38z m1334 25 c48 -13 111 -45 155 -80 18 -14 11 -74 -167 -1500
-102 -817 -186 -1488 -186 -1491 0 -3 -97 -5 -215 -5 l-215 0 0 33 c0 17 36
491 81 1051 55 688 79 1028 73 1045 -5 14 -22 32 -38 40 -27 12 -28 16 -22 59
3 24 6 59 6 77 0 27 5 35 29 43 53 19 57 37 80 337 25 318 16 294 127 350 105
53 197 66 292 41z"/>
<path d="M2465 4515 c-14 -13 -25 -36 -25 -50 0 -31 41 -75 70 -75 12 0 34 -7
49 -15 27 -13 36 -30 57 -100 13 -41 55 -61 94 -45 54 22 62 97 20 180 -54
105 -206 165 -265 105z"/>
<path d="M3202 4233 c-126 -44 -218 -238 -147 -308 28 -29 45 -31 85 -10 29
15 34 24 44 86 9 49 51 87 110 98 56 10 73 24 82 68 5 26 1 37 -19 57 -31 31
-86 34 -155 9z"/>
<path d="M389 3101 c-59 -12 -128 -59 -160 -109 -16 -25 -29 -52 -29 -58 0 -7
-19 -22 -43 -32 -53 -23 -104 -74 -128 -127 -21 -46 -24 -130 -7 -186 15 -51
70 -114 120 -140 50 -26 136 -35 178 -20 28 9 38 7 76 -15 84 -49 199 -41 280
21 104 80 124 252 40 353 -15 18 -25 46 -29 83 -15 153 -152 259 -298 230z
m118 -175 c26 -23 28 -29 28 -101 0 -76 0 -76 38 -108 30 -25 40 -41 44 -74 5
-39 2 -46 -30 -78 -51 -51 -100 -46 -159 17 -31 34 -70 36 -113 8 -36 -24 -66
-25 -105 -5 -37 19 -50 43 -50 90 0 48 44 95 90 95 42 0 90 47 90 88 0 18 11
43 26 61 22 26 33 31 69 31 32 0 52 -7 72 -24z"/>
<path d="M4791 2098 c-39 -11 -121 -64 -121 -78 0 -6 -23 -10 -50 -10 -93 0
-168 -46 -215 -131 -55 -102 -35 -219 51 -303 35 -34 106 -66 148 -66 12 -1
29 -14 41 -33 11 -18 42 -46 68 -64 156 -104 367 -3 384 185 3 33 1 74 -6 94
-9 28 -8 42 4 71 8 20 15 62 15 94 0 168 -158 288 -319 241z m119 -153 c58
-30 65 -87 23 -165 l-28 -50 23 -39 c36 -65 24 -129 -29 -157 -61 -31 -119 -7
-145 61 -21 57 -52 75 -115 68 -41 -5 -50 -2 -79 24 -28 25 -33 36 -33 73 0
37 5 48 33 73 31 28 35 29 100 22 74 -7 78 -5 123 60 31 44 78 55 127 30z"/>
</g>
</svg>
